<mxfile host="app.diagrams.net" modified="2024-04-24T00:38:41.517Z" agent="Mozilla/5.0 (Macintosh; Intel Mac OS X 10_15_7) AppleWebKit/537.36 (KHTML, like Gecko) Chrome/123.0.0.0 Safari/537.36" version="24.2.8" etag="1_2QDS8KeKBx6YlLp7Ii" type="github">
  <diagram name="Page-1" id="xsJOyruHRms2596xALlu">
    <mxGraphModel>
      <root>
        <mxCell id="0" />
        <mxCell id="1" parent="0" />
      </root>
    </mxGraphModel>
  </diagram>
</mxfile>
